<?xml version="1.0" standalone="no"?><!DOCTYPE svg PUBLIC "-//W3C//DTD SVG 1.1//EN" "http://www.w3.org/Graphics/SVG/1.1/DTD/svg11.dtd" ><svg xmlns="http://www.w3.org/2000/svg"><metadata></metadata><defs><font id="Hanyi HYTiaoTiaoTiJ Regular v5.00" horiz-adv-x="1000"><font-face font-family="HYTiaoTiaoTiJ" font-weight="400" font-stretch="normal" units-per-em="1000" panose-1="0 2 6 0 4 1 1 1 1 1" ascent="917" descent="-307" x-height="1" bbox="46 -71 975 779" underline-thickness="50" underline-position="-307" unicode-range="U+00a5-ff1a" /><missing-glyph horiz-adv-x="1000" d="M144 599 l-8 -144 q-2 -29 -3.5 -59.5 q-1.5 -30.5 -2 -59 q-0.5 -28.5 -1 -53 q-0.5 -24.5 -0.5 -41.5 l-71 0 l-6 136 q-1 28 -2 58 q-1 30 -1.5 59 q-0.5 29 0 56 q0.5 27 1.5 48 l94 0 ZM92 69 q-22 0 -33.5 16 q-11.5 16 -12.5 34 q0 13 11 27.5 q11 14.5 41 13.5 q22 0 35.5 -12.5 q13.5 -12.5 12.5 -35.5 q-1 -20 -17.5 -31.5 q-16.5 -11.5 -36.5 -11.5 Z" /><glyph glyph-name="" unicode="&#x4f5c;" d="M355 496 q22 28 43 63 q18 30 37.5 71 q19.5 41 34.5 89 l62 -10 q0 -2 -2 -28 q-2 -26 -10 -64 l344 19 l7 -76 q-51 -8 -98 -12 q-47 -4 -90 -5 q1 -20 1.5 -63.5 q0.5 -43.5 -0.5 -97.5 l160 3 l-1 -79 q-49 -3 -90.5 -0.5 q-41.5 2.5 -68.5 6.5 q-1 -33 -1 -66.5 q0 -33.5 0 -65.5 l169 6 l0 -77 q-63 -5 -105 -2 q-42 3 -65 8 q-1 -30 -1 -55.5 q0 -25.5 0 -44.5 q0 -22 -1 -39 l-107 3 l27 565 q-29 1 -54 3 q-25 2 -45 4 q-11 -29 -26.5 -56.5 q-15.5 -27.5 -38.5 -47.5 l-81 49 ZM341 548 q-8 -52 -33 -96 q-11 -19 -26 -37.5 q-15 -18.5 -36 -35 q-21 -16.5 -48 -28.5 q-27 -12 -62 -18 l-47 79 q30 17 56 33 q26 16 50 34 q24 18 46.5 40.5 q22.5 22.5 46.5 53.5 l53 -25 ZM312 355 l2 -235 l-112 3 q5 48 9 93 q4 38 9 77.5 q5 39.5 12 64.5 l80 -3 Z" /><glyph glyph-name="" unicode="&#x5199;" d="M331 281 q0 52 4 100 q2 42 7.5 85.5 q5.5 43.5 13.5 74.5 l88 -12 q-1 -11 -3 -23 q-2 -11 -4 -24.5 q-2 -13.5 -4 -28.5 l237 15 l4 -66 q-33 -7 -69.5 -9.5 q-36.5 -2.5 -70.5 -1.5 q-34 1 -63 3.5 q-29 2.5 -48 5.5 q-3 -20 -6.5 -37 q-3.5 -17 -7.5 -29 q58 -2 114 -6 q47 -3 100 -7 q53 -4 92 -8 q1 -58 -3 -115 q-3 -49 -11.5 -103.5 q-8.5 -54.5 -25.5 -96.5 q-34 -3 -63.5 -1.5 q-29.5 1.5 -52.5 4.5 q-26 4 -49 9 l5 65 q18 -3 36 -5 q15 -2 30.5 -3.5 q15.5 -1.5 25.5 -2.5 q2 47 3 87 q0 17 0.5 34 q0.5 17 1 32 q0.5 15 1 26 q0.5 11 0.5 17 q-55 -3 -107 -1 q-45 1 -93 6 q-48 5 -82 16 ZM209 541 q8 38 15 72 q6 29 10.5 58.5 q4.5 29.5 5.5 46.5 l84 -5 l0 -10 q0 -5 -0.5 -12 q-0.5 -7 -0.5 -15 q21 0 59 -1 q38 -1 84 -2.5 q46 -1.5 96 -4.5 q50 -3 96 -7 q46 -4 84 -9.5 q38 -5.5 59 -12.5 q-7 -32 -14 -58 q-7 -23 -15 -45 q-8 -22 -16 -33 l-85 24 q0 0 2 7.5 q2 7.5 5 19 q3 11.5 7 24 q4 12.5 9 23.5 q-78 2 -150 5 q-31 1 -63 2.5 q-32 1.5 -62.5 3.5 q-30.5 2 -57 4 q-26.5 2 -45.5 5 q-5 -28 -16.5 -54 q-11.5 -26 -32.5 -40 l-58 14 ZM200 188 q53 -2 108 -2 q48 0 104.5 1 q56.5 1 111.5 5 l0 -67 q-49 -14 -106 -14.5 q-57 -0.5 -106 4.5 q-57 5 -114 17 l2 56 Z" /><glyph glyph-name="" unicode="&#x51c6;" d="M566 346 q15 0 46.5 0.5 q31.5 0.5 69.5 1.5 q3 30 9 54 l70 -4 l2 -50 q24 0 45 0.5 q21 0.5 38 0.5 l36 0 l2 -62 q-23 -8 -54 -10 q-31 -2 -64 -1 q1 -15 1.5 -29.5 q0.5 -14.5 0.5 -28.5 l108 6 l0 -56 q-23 -12 -50 -18 q-27 -6 -56 -8 q1 -24 0.5 -42.5 q-0.5 -18.5 -0.5 -36.5 q26 -1 49 -1.5 q23 -0.5 41 -0.5 q21 -1 39 -1 l-5 -46 q-21 -14 -46.5 -21.5 q-25.5 -7.5 -52 -10.5 q-26.5 -3 -53 -2.5 q-26.5 0.5 -51.5 3.5 q-58 6 -118 23 l-3 70 q19 -3 53.5 -5.5 q34.5 -2.5 74.5 -4.5 q-3 16 -6 35 q-3 19 -5 41 q-24 2 -45 4.5 q-21 2.5 -37 5.5 q-18 4 -33 7 l0 48 l109 6 q-1 17 -1 35 q0 18 0 35 q-25 2 -46.5 5.5 q-21.5 3.5 -37.5 5.5 q-18 3 -34 6 l4 46 ZM907 463 q-19 -9 -44.5 -16 q-25.5 -7 -53.5 -12 q-28 -5 -58 -8 q-30 -3 -58 -5 q-66 -4 -137 -3 l-12 82 q17 -2 42 -2 q25 0 53.5 1 q28.5 1 59 2 q30.5 1 60.5 3 q70 4 146 9 l2 -51 ZM508 539 q-13 -50 -38 -90 q-21 -35 -55.5 -64 q-34.5 -29 -86.5 -34 l-46 65 q26 17 51 32.5 q25 15.5 47.5 33 q22.5 17.5 43 37.5 q20.5 20 38.5 45 l46 -25 ZM468 349 l8 -204 l-96 1 q2 46 6 86 q3 35 7 68.5 q4 33.5 9 50.5 l66 -2 ZM268 222 l40 -47 q-14 -30 -34.5 -50.5 q-20.5 -20.5 -40.5 -34.5 q-24 -16 -49 -26 l-60 75 l144 83 ZM215 393 q-20 8 -38 19 q-16 10 -34 23.5 q-18 13.5 -32 31.5 l38 61 q19 -11 39 -22 q17 -9 38 -19 q21 -10 41 -18 l-52 -76 ZM684 692 q15 -22 30 -41 q13 -17 27.5 -34 q14.5 -17 27.5 -27 l-74 -50 q-17 20 -31 41 q-12 18 -23 39.5 q-11 21.5 -14 42.5 l57 29 Z" /><glyph glyph-name="" unicode="&#x5206;" d="M497 84 l50 0 q19 0 36 0.5 q17 0.5 20 2.5 l-6 199 l-120 2 q-7 -48 -25.5 -93 q-18.5 -45 -45 -82 q-26.5 -37 -59 -64.5 q-32.5 -27.5 -65.5 -40.5 l-64 79 q53 38 103.5 89 q50.5 51 79.5 113 l-130 2 l5 91 q88 -4 170 -10 q34 -3 71 -6 q37 -3 71.5 -7.5 q34.5 -4.5 65 -10 q30.5 -5.5 53.5 -12.5 q5 -57 5 -114 q0 -49 -5.5 -104 q-5.5 -55 -19.5 -100 q-38 -4 -71 -7 q-29 -2 -59 -3.5 q-30 -1.5 -47 0.5 l-13 76 ZM549 716 q40 -47 75 -80 q35 -33 70 -59 q35 -26 71.5 -47.5 q36.5 -21.5 79.5 -43.5 l-41 -79 q-41 4 -75.5 18 q-34.5 14 -64 34.5 q-29.5 20.5 -53 45.5 q-23.5 25 -42.5 51 q-44 60 -73 133 l53 27 ZM395 645 q-8 -45 -28 -85 q-17 -35 -49.5 -71 q-32.5 -36 -86.5 -59 l-73 79 q32 18 61 40 q29 22 52.5 44.5 q23.5 22.5 41 44.5 q17.5 22 25.5 39 l57 -32 Z" /><glyph glyph-name="" unicode="&#x529b;" d="M590 651 q-2 -30 -6 -62 q-4 -32 -10 -67 q66 -11 129.5 -26.5 q63.5 -15.5 112.5 -33.5 q3 -70 -1 -139 q-2 -29 -5 -61.5 q-3 -32.5 -8 -64.5 q-5 -32 -13 -63 q-8 -31 -19 -58 q-33 -6 -67 -9 q-29 -2 -63.5 -1 q-34.5 1 -66.5 11 l-7 78 q28 -2 53 -2 q21 0 41.5 0.5 q20.5 0.5 28.5 4.5 l20 257 l-157 19 q-16 -54 -40.5 -108 q-24.5 -54 -59 -102.5 q-34.5 -48.5 -80 -89.5 q-45.5 -41 -103.5 -70 l-69 75 q74 55 137.5 134 q63.5 79 108.5 175 l-186 23 l12 93 q29 -3 62 -7 q29 -4 67 -8.5 q38 -4.5 82 -11.5 q11 31 19.5 62.5 q8.5 31.5 14.5 63.5 l73 -12 Z" /><glyph glyph-name="" unicode="&#x5355;" d="M442 -60 l4 146 q-56 3 -101 6.5 q-45 3.5 -77 7.5 q-38 4 -66 9 l4 54 q33 -1 72 -2 q33 -1 77 -1 q44 0 93 0 l2 87 q-54 1 -106 6 q-52 5 -97 18 q7 66 12 126 q2 25 3.5 52 q1.5 27 3 52 q1.5 25 1.5 47 q0 22 -1 37 l72 1 l0 -3 q0 -5 1 -8 q15 1 45 2.5 q30 1.5 68 2.5 q38 1 79.5 1.5 q41.5 0.5 78 0.5 q36.5 0 64 -0.5 q27.5 -0.5 37.5 -1.5 q4 -77 7 -142 q1 -28 1.5 -56 q0.5 -28 0.5 -52 q0 -24 -1 -42 q-1 -18 -3 -27 q-24 -3 -53 -6 q-25 -2 -58.5 -4.5 q-33.5 -2.5 -71.5 -3.5 q0 -22 0.5 -43.5 q0.5 -21.5 0.5 -42.5 q75 1 144 3 q69 2 114 7 l4 -83 q-71 -5 -136.5 -6 q-65.5 -1 -125.5 1 q0 -51 0 -93.5 q0 -42.5 -1 -56.5 l-91 7 ZM381 446 q11 0 31 0 q20 0 44 1 l2 71 q-39 0 -70 -0.5 q-31 -0.5 -45 -0.5 q1 -22 2 -47.5 q1 -25.5 1 -51 q0 -25.5 -0.5 -49.5 q-0.5 -24 -3.5 -43 q15 -1 33 -3 q15 -2 34.5 -3 q19.5 -1 42.5 -2 l2 69 q-16 0 -29.5 0 q-13.5 0 -24.5 1 q-12 0 -22 1 l3 57 ZM532 387 q0 -17 0.5 -35.5 q0.5 -18.5 0.5 -37.5 q29 -1 54.5 0 q25.5 1 40.5 4 q2 39 5 76 q2 32 3.5 65.5 q1.5 33.5 1.5 58.5 l-108 0 q0 -14 0.5 -31 q0.5 -17 0.5 -37 q15 0 27.5 0.5 q12.5 0.5 22.5 0.5 q11 0 21 1 l-1 -60 q-12 -2 -30 -3 q-18 -1 -39 -2 ZM527 632 q12 16 26 39 q14 23 26 45 q14 26 27 52 l81 -31 q-7 -36 -24 -62.5 q-17 -26.5 -35 -44.5 q-21 -21 -45 -36 l-56 38 ZM373 609 q-20 9 -38 23 q-16 12 -32 30.5 q-16 18.5 -25 46.5 l60 40 q16 -22 30 -41 q12 -17 25 -32.5 q13 -15.5 21 -23.5 l-41 -43 Z" /><glyph glyph-name="" unicode="&#x53f7;" d="M179 416 q43 -4 93 -7 q50 -3 101.5 -5 q51.5 -2 103.5 -4 q52 -2 99 -3 q111 -4 222 -5 l0 -81 q-88 -7 -176.5 -3.5 q-88.5 3.5 -168.5 11.5 q-9 -27 -19 -45.5 q-10 -18.5 -18.5 -30 q-8.5 -11.5 -15 -16.5 q-6.5 -5 -7.5 -6 q38 -2 87 -7.5 q49 -5.5 93 -10.5 q51 -6 104 -13 q5 -70 0 -117.5 q-5 -47.5 -12 -76.5 q-9 -34 -20 -55 q-30 -4 -58.5 -2.5 q-28.5 1.5 -51.5 5.5 q-26 4 -49 10 l6 71 q5 -1 19.5 -3 q14.5 -2 29.5 -5 q18 -4 39 -7 q-2 23 -3 44.5 q-1 21.5 -1 38.5 q-1 20 0 38 q-52 -2 -99 2.5 q-47 4.5 -84 9.5 q-43 6 -81 15 l0 58 q3 7 8.5 20.5 q5.5 13.5 12.5 29.5 q7 16 15 33 q8 17 14 31 q-42 5 -75.5 10.5 q-33.5 5.5 -58.5 10.5 q-29 5 -52 10 l3 55 ZM316 493 q3 15 6 48 q3 33 6 71 q3 38 5.5 73.5 q2.5 35.5 3.5 55.5 l83 1 l0 -5 q0 -2 0 -5.5 q0 -3.5 1 -7.5 q21 2 56 4 q35 2 71 3 q36 1 66.5 1.5 q30.5 0.5 43.5 -0.5 q7 -60 11 -110 q2 -21 3 -43 q1 -22 1.5 -41 q0.5 -19 0 -33.5 q-0.5 -14.5 -2.5 -21.5 q-70 -5 -135 -6 q-57 -1 -117 2 q-60 3 -103 14 ZM575 664 q-3 0 -20 0.5 q-17 0.5 -40 1 q-23 0.5 -48 1 q-25 0.5 -44 0.5 q1 -28 0.5 -58 q-0.5 -30 -2.5 -58 q32 -1 61 -3 q25 -2 50 -3 q25 -1 39 -3 q3 17 5 37 q2 17 1.5 39 q-0.5 22 -2.5 46 Z" /><glyph glyph-name="" unicode="&#x540d;" d="M351 502 l91 -90 q42 30 79 68.5 q37 38.5 63 89.5 q-29 0 -60 4 q-26 3 -59.5 8 q-33.5 5 -65.5 15 q-23 -23 -45 -36.5 q-22 -13.5 -39 -21.5 q-20 -9 -39 -13 l-39 52 q41 32 69.5 67.5 q28.5 35.5 45.5 64.5 q20 34 33 67 l94 -41 q-7 -23 -15 -42.5 q-8 -19.5 -18 -36.5 q41 -5 100 -12 q59 -7 116 -14 l3 -64 q-14 -54 -49 -108.5 q-35 -54.5 -87.5 -101 q-52.5 -46.5 -122 -80.5 q-69.5 -34 -153.5 -49 l-34 78 q20 6 43 14 q20 7 46 17.5 q26 10.5 55 26.5 q-14 14 -24 32 q-10 18 -18 34 q-9 18 -16 37 l46 35 ZM493 239 q21 1 55.5 1 q34.5 0 70.5 -0.5 q36 -0.5 65.5 -1 q29.5 -0.5 40.5 -1.5 q6 -61 10 -112 q1 -22 2.5 -43.5 q1.5 -21.5 2.5 -40.5 q1 -19 0.5 -33 q-0.5 -14 -2.5 -20 q-73 -7 -141 -10 q-29 -1 -59.5 -1.5 q-30.5 -0.5 -59.5 1 q-29 1.5 -54.5 5 q-25.5 3.5 -44.5 9.5 q6 69 11 124 q2 23 4 45.5 q2 22.5 3.5 40.5 q1.5 18 2 29.5 q0.5 11.5 0.5 13.5 l93 3 l0 -9 ZM624 172 q-24 1 -48 3 q-20 2 -42 3 q-22 1 -37 2 q1 -30 1.5 -63 q0.5 -33 -1.5 -60 l128 -12 q1 20 2 42 q0 19 -0.5 41.5 q-0.5 22.5 -2.5 43.5 Z" /><glyph glyph-name="" unicode="&#x542c;" d="M693 329 q-31 4 -59 8.5 q-28 4.5 -51 9.5 q-8 -60 -22.5 -101 q-14.5 -41 -28.5 -68 q-17 -32 -36 -52 l-81 42 q24 54 41 101.5 q17 47.5 29 94 q12 46.5 19.5 94.5 q7.5 48 11.5 102 q33 13 63 27.5 q30 14.5 58.5 32.5 q28.5 18 56.5 39.5 q28 21.5 57 49.5 l61 -68 q-18 -38 -55.5 -64 q-37.5 -26 -75.5 -43 q-45 -19 -95 -31 q2 -25 2.5 -48 q0.5 -23 -0.5 -44 q44 0 97.5 -0.5 q53.5 -0.5 101.5 -1.5 q55 -1 112 -2 l-2 -77 q-48 -11 -107 -9 q5 -54 8 -141.5 q3 -87.5 -4 -199.5 l-76 -5 l-25 354 ZM117 240 q6 56 10 101 q2 19 3.5 37.5 q1.5 18.5 2.5 33 q1 14.5 1 24 q0 9.5 0 11.5 l79 3 l0 -3 q0 -5 1 -7 q14 1 35 2 q21 1 42 1 q21 0 39.5 -0.5 q18.5 -0.5 29.5 -1.5 q8 -45 12 -85 q4 -35 6 -71 q2 -36 -3 -58 q-56 -3 -105 -3 q-43 0 -86 3 q-43 3 -67 13 ZM287 390 q-13 0 -25 1 q-11 1 -23 1.5 q-12 0.5 -23 0.5 q1 -25 1.5 -52.5 q0.5 -27.5 -1.5 -53.5 q12 -1 24 -3 q11 -2 23 -3 q12 -1 24 -3 q1 18 2 36 q1 16 0.5 36 q-0.5 20 -2.5 40 Z" /><glyph glyph-name="" unicode="&#x548c;" d="M567 175 q6 45 11 92 q5 40 8.5 87.5 q3.5 47.5 5.5 89.5 l92 6 l0 -5 q0 -2 0 -5.5 q0 -3.5 1 -6.5 q19 2 47.5 3 q28.5 1 57 1 q28.5 0 54 -1 q25.5 -1 40.5 -2 q9 -56 15 -108 q3 -22 4.5 -45.5 q1.5 -23.5 2.5 -46 q1 -22.5 0 -42 q-1 -19.5 -4 -34.5 q-71 -5 -135 -5 q-27 0 -56 1 q-29 1 -55.5 3.5 q-26.5 2.5 -49.5 6.5 q-23 4 -39 11 ZM239 344 q-38 0 -71 2 q-33 2 -57 4 q-29 3 -52 5 l-4 49 l181 14 l-4 87 l98 5 q1 -10 2 -23 q1 -11 1.5 -26.5 q0.5 -15.5 2.5 -34.5 l148 12 l4 -71 q-34 -9 -72 -13.5 q-38 -4.5 -76 -6.5 l3 -109 l27 55 l163 -92 l-33 -54 q-27 1 -51 8 q-24 7 -44.5 15.5 q-20.5 8.5 -36.5 18 q-16 9.5 -25 15.5 q1 -47 -0.5 -93.5 q-1.5 -46.5 -4.5 -90.5 l-84 -1 l-15 325 ZM386 650 q-26 -50 -65 -75.5 q-39 -25.5 -75 -36.5 q-43 -13 -88 -14 l-37 81 q50 9 92 24 q42 15 74 29 q37 17 67 36 l32 -44 ZM789 374 q-18 1 -36 2 q-16 1 -33.5 1 q-17.5 0 -32.5 1 q2 -34 1.5 -73.5 q-0.5 -39.5 -2.5 -75.5 q17 -2 35 -4 q15 -2 33 -4 q18 -2 35 -4 q2 24 3 50 q1 23 0.5 50.5 q-0.5 27.5 -3.5 56.5 ZM232 236 q-17 -36 -40 -59 q-23 -23 -44 -36 q-25 -15 -50 -22 l-50 78 q30 13 55.5 27.5 q25.5 14.5 44 27 q18.5 12.5 29.5 21 q11 8.5 11 8.5 l44 -45 Z" /><glyph glyph-name="" unicode="&#x59d3;" d="M584 604 q-4 -29 -9.5 -52 q-5.5 -23 -13.5 -42 l123 12 l1 120 l92 1 l0 -115 q26 2 49 3 q23 1 40 2 q19 1 36 2 l7 -52 q-25 -14 -59.5 -22.5 q-34.5 -8.5 -72.5 -14.5 l-2 -133 q22 -1 40.5 -1 q18.5 0 32.5 0 l29 0 l0 -65 q-13 -2 -29 -5 q-14 -2 -33 -4.5 q-19 -2.5 -42 -4.5 q-1 -45 -3 -86 q-2 -41 -4 -73 l138 -2 l3 -62 q-26 -11 -56 -17.5 q-30 -6.5 -61 -8.5 q-31 -2 -62 -1.5 q-31 0.5 -59 3.5 q-67 6 -134 21 l10 71 l136 -3 l1 154 q-32 0 -65 2.5 q-33 2.5 -65 9.5 l-5 83 q25 -3 61 -4.5 q36 -1.5 75 -3.5 l0 120 q-27 -2 -51 -3 q-24 -1 -41 -1 l-38 0 l-5 50 q-13 -23 -27 -37.5 q-14 -14.5 -25 -22.5 q-13 -10 -26 -13 l-58 32 q24 35 41.5 69 q17.5 34 28.5 60 q13 31 22 57 l80 -23 ZM408 478 q-12 -137 -64 -228 q34 -20 48 -34 l-46 -76 q-7 5 -16 11 q-8 5 -17.5 12.5 q-9.5 7.5 -21.5 16.5 q-64 -64 -153 -89 l-46 73 q32 13 62.5 29.5 q30.5 16.5 59.5 42.5 q-20 14 -38.5 27.5 q-18.5 13.5 -33.5 24 q-15 10.5 -26 17.5 q-11 7 -14 9 q3 10 7 23 q4 11 9 26 q5 15 11 35 q-15 2 -30 3.5 q-15 1.5 -32 3.5 l4 79 q10 -1 22 -2 q11 -1 26 -2 q15 -1 33 -2 q11 39 22 83 q11 44 22 90 l90 -15 q-6 -25 -13 -51 q-6 -23 -14 -52 q-8 -29 -19 -59 q42 -2 86 -1 q44 1 82 5 ZM174 337 q12 -6 27 -13 q13 -6 29.5 -14 q16.5 -8 34.5 -17 q33 48 53 115 q-53 -12 -109 -12 q-8 -17 -17 -32.5 q-9 -15.5 -18 -26.5 Z" /><glyph glyph-name="" unicode="&#x603b;" d="M298 295 q4 59 8 112 q1 22 3 45 q2 23 3 43.5 q1 20.5 2 37.5 q1 17 1 27 l87 5 l0 -6 q0 -3 0.5 -6.5 q0.5 -3.5 0.5 -7.5 q25 2 69.5 4 q44.5 2 91 3.5 q46.5 1.5 85.5 2 q39 0.5 53 -0.5 q7 -65 11 -120 q2 -24 3.5 -47.5 q1.5 -23.5 2 -43.5 q0.5 -20 -0.5 -36 q-1 -16 -3 -23 q-91 -7 -172 -9 q-35 -1 -70.5 -0.5 q-35.5 0.5 -68 2.5 q-32.5 2 -60.5 6.5 q-28 4.5 -46 11.5 ZM193 49 q48 32 87 67.5 q39 35.5 72 72.5 l59 -34 q13 -50 39 -82 q26 -32 61 -46 q20 -8 46 -2 q26 6 49 17 q26 12 54 30 l44 -71 q-38 -38 -78 -55 q-40 -17 -78 -17 q-38 0 -72 13 q-34 13 -59.5 34 q-25.5 21 -41.5 47.5 q-16 26.5 -17 52.5 q-11 -23 -27 -42 q-16 -19 -31 -32 q-18 -16 -37 -27 l-70 74 ZM527 484 l-121 0 q2 -32 1.5 -66.5 q-0.5 -34.5 -2.5 -64.5 q48 -1 89 -2 q35 -1 69.5 -2 q34.5 -1 50.5 -3 q1 21 2 45 q1 20 0.5 44.5 q-0.5 24.5 -3.5 48.5 l-86 0 ZM546 630 q14 17 28 43 q14 26 25 49 q13 27 25 57 l90 -35 q-5 -45 -21.5 -74 q-16.5 -29 -34.5 -47 q-21 -21 -46 -33 l-66 40 ZM355 742 q16 -22 31 -40 q13 -17 26.5 -33 q13.5 -16 22.5 -24 l-53 -50 q-25 15 -44 32 q-17 14 -32 33 q-15 19 -17 39 l66 43 ZM709 200 q17 -9 32.5 -22.5 q15.5 -13.5 28.5 -25.5 q15 -14 28 -29 l-61 -62 q-9 11 -22 25.5 q-13 14.5 -26 28.5 q-15 16 -30 33 l50 52 ZM453 209 l57 36 q15 -16 29 -33 q11 -14 23 -30.5 q12 -16.5 19 -29.5 l-78 -39 l-50 96 Z" /><glyph glyph-name="" unicode="&#x79d1;" d="M491 294 q27 -2 61 -4 q29 -2 69.5 -2.5 q40.5 -0.5 90.5 1.5 q1 62 2.5 125 q1.5 63 3.5 119 q2 56 5 100 q3 44 7 68 l60 -6 q6 -19 10.5 -60.5 q4.5 -41.5 6.5 -96.5 q2 -55 3.5 -118.5 q1.5 -63.5 1.5 -126.5 q36 2 73.5 5.5 q37.5 3.5 77.5 8.5 l12 -55 q-16 -6 -40 -12 q-20 -5 -50.5 -11.5 q-30.5 -6.5 -72.5 -11.5 q0 -42 -0.5 -79 q-0.5 -37 -1.5 -67 q-1 -30 -1.5 -50.5 q-0.5 -20.5 -0.5 -29.5 l-99 -3 l0 64 q0 30 0 69.5 q0 39.5 1 86.5 q-46 -2 -99.5 -3 q-53.5 -1 -116.5 2 l-3 87 ZM220 329 q-26 0 -47.5 2 q-21.5 2 -36.5 4 q-18 3 -32 5 l-3 50 l115 14 l-6 101 l88 6 q1 -11 2 -26 q1 -13 2 -31 q1 -18 3 -40 l104 13 l4 -74 q-26 -8 -52 -12.5 q-26 -4.5 -52 -7.5 q1 -7 1 -14 q0 -7 0 -14 l149 -95 l-28 -49 q-29 4 -60.5 18 q-31.5 14 -57.5 28 q0 -47 -1.5 -94.5 q-1.5 -47.5 -4.5 -92.5 l-69 -5 l-18 314 ZM358 654 q-29 -51 -65.5 -75.5 q-36.5 -24.5 -68.5 -33.5 q-38 -11 -77 -8 l-31 81 q48 9 87 22.5 q39 13.5 68 26.5 q33 15 60 31 l27 -44 ZM653 519 q-27 4 -52 16 q-21 10 -43.5 29.5 q-22.5 19.5 -37.5 51.5 l28 43 q16 -10 37 -21 q17 -10 42 -21.5 q25 -11.5 56 -23.5 l-30 -74 ZM218 239 q-20 -38 -39.5 -58 q-19.5 -20 -35.5 -29 q-18 -11 -36 -11 l-47 63 q22 13 42.5 27.5 q20.5 14.5 36 27 q15.5 12.5 25.5 20.5 q10 8 10 9 l44 -49 ZM638 434 l-17 -61 q-27 -2 -51 0.5 q-24 2.5 -42 6.5 q-21 4 -40 11 l16 81 l134 -38 Z" /><glyph glyph-name="" unicode="&#x7ffb;" d="M103 22 q4 42 8 84 q3 36 5 77.5 q2 41.5 0 77.5 l65 5 l0 -6 q0 -3 0 -6.5 q0 -3.5 1 -7.5 q18 2 53.5 4 q35.5 2 74 3 q38.5 1 71.5 0.5 q33 -0.5 46 -1.5 q5 -55 8 -103 q2 -41 2.5 -80 q0.5 -39 -3.5 -56 q-69 -6 -131 -8 q-27 -1 -55 -0.5 q-28 0.5 -54.5 2 q-26.5 1.5 -50 5.5 q-23.5 4 -40.5 10 ZM728 543 q27 -5 56.5 -8 q29.5 -3 55.5 -4 q30 -2 59 -1 q10 -98 11.5 -189 q1.5 -91 -0.5 -162 q-3 -83 -8 -156 q-21 -5 -43 -5 q-22 0 -40 2 q-21 3 -41 7 l1 47 l56 5 l0 142 q0 30 0 62.5 q0 32.5 -0.5 64.5 q-0.5 32 -0.5 62.5 q0 30.5 0 56.5 q-13 -2 -31.5 -1 q-18.5 1 -35.5 3 q-20 2 -41 5 l2 69 ZM499 521 q26 -5 55 -7 q29 -2 55 -3 q30 -1 59 -1 q9 -90 10.5 -170 q1.5 -80 -0.5 -141 q-3 -71 -8 -133 q-20 -5 -41.5 -5 q-21.5 0 -39.5 2 q-21 2 -42 7 l1 51 l55 4 l0 116 q0 50 -0.5 106.5 q-0.5 56.5 -0.5 104.5 q-13 -2 -30.5 -1 q-17.5 1 -34.5 3 q-19 2 -40 5 l2 62 ZM102 480 q35 -3 72 -4 q37 -1 74 -1 q2 32 3.5 60 q1.5 28 5.5 47 l56 2 q1 -14 2 -32 q1 -15 1.5 -34.5 q0.5 -19.5 1.5 -41.5 q29 1 54.5 2 q25.5 1 44.5 2 q22 1 39 2 l1 -67 q-35 -6 -69.5 -8 q-34.5 -2 -66.5 -1 q1 -36 1.5 -67 q0.5 -31 -1.5 -50 l-77 4 l0 35 q0 16 0 37 q0 21 1 45 q-33 3 -60.5 7.5 q-27.5 4.5 -47.5 9.5 q-23 5 -41 10 l6 43 ZM364 691 q-26 -37 -60 -53.5 q-34 -16.5 -63 -21.5 q-35 -6 -70 -2 l-16 49 q28 9 57 23 q29 14 54 28 q28 16 56 33 l42 -56 ZM83 341 q47 20 71 37 q24 17 40 33 l34 -32 q-13 -25 -30 -44 q-14 -17 -34 -32 q-20 -15 -43 -17 l-38 55 ZM818 187 q-21 -26 -38 -39 q-17 -13 -29 -18 q-14 -6 -25 -5 l-37 68 q18 3 36 9.5 q18 6.5 32 13.5 q17 8 33 17 l28 -46 ZM304 208 l0 -53 q11 0 19.5 -0.5 q8.5 -0.5 15.5 -0.5 l2 -40 q-6 -1 -12 -1 l-25 0 l0 -60 q17 -1 30 -2 q13 -1 21 -2 q3 26 5 53 q2 23 2 51.5 q0 28.5 -2 54.5 l-56 0 ZM475 349 l-27 -63 q-20 0 -37.5 10.5 q-17.5 10.5 -31.5 22.5 q-16 14 -30 32 l25 37 l101 -39 ZM585 206 q-20 -23 -37 -35 q-17 -12 -30 -17 q-15 -6 -27 -6 l-35 63 q18 3 36 9 q18 6 32.5 12.5 q14.5 6.5 24 11 q9.5 4.5 9.5 4.5 l27 -42 ZM199 161 q6 0 13 -1 q6 -1 13.5 -1.5 q7.5 -0.5 16.5 -0.5 l0 50 l-57 0 q2 -32 2.5 -72.5 q0.5 -40.5 -1.5 -78.5 q7 -1 17 -1 q8 0 18.5 -0.5 q10.5 -0.5 22.5 -0.5 q-1 14 -1.5 28.5 q-0.5 14.5 -0.5 29.5 q-13 1 -23.5 1.5 q-10.5 0.5 -18.5 2.5 l-1 44 ZM347 530 q11 13 20.5 27 q9.5 14 16.5 26 q8 14 14 28 l44 -21 q-2 -29 -8 -48 q-6 -19 -14 -30 q-9 -13 -19 -21 l-54 39 ZM808 374 l-25 -66 q-17 4 -31.5 12 q-14.5 8 -25.5 16 q-13 9 -24 19 l20 46 l86 -27 ZM587 373 l-25 -60 q-17 3 -31.5 10 q-14.5 7 -25.5 14 q-13 8 -25 18 l20 42 l87 -24 ZM203 508 l-48 -20 q-12 14 -20.5 26 q-8.5 12 -13.5 22 q-6 11 -9 21 l58 28 l33 -77 Z" /><glyph glyph-name="" unicode="&#x8003;" d="M767 473 q-33 -15 -75 -23 q-42 -8 -88 -12 q-55 -81 -130 -138 q42 -3 89.5 -4.5 q47.5 -1.5 88.5 -2.5 q48 -1 94 -2 l-2 -53 q-30 -4 -65 -7 q-30 -2 -70 -4.5 q-40 -2.5 -85 -0.5 l-7 -60 q35 3 72 4 q32 1 70 -1 q38 -2 74 -9 q6 -38 10 -75 q3 -32 2.5 -67 q-0.5 -35 -9.5 -61 q-28 -4 -56 -5 q-24 -2 -53 -1 q-29 1 -54 6 l2 59 q17 0 32 1 q13 1 24 2 q11 1 16 3 q2 11 4 24 q2 11 3 27 q1 16 1 36 q-32 -1 -70 -1 q-32 0 -74 1.5 q-42 1.5 -87 5.5 q0 16 2 34 q2 16 5 36.5 q3 20.5 9 45.5 q-17 2 -34 3.5 q-17 1.5 -34 4.5 q-69 -32 -145 -44 l-31 75 q71 23 149 61.5 q78 38.5 148 103.5 q-57 1 -109.5 5 q-52.5 4 -93.5 9 q-48 5 -89 12 l9 51 l198 2 l5 96 q-38 2 -74 6.5 q-36 4.5 -65 12.5 l6 71 q29 -7 65 -12.5 q36 -5.5 71 -10.5 l5 91 l96 -10 q0 -17 -2 -41.5 q-2 -24.5 -6 -51.5 q17 -2 31.5 -4 q14.5 -2 25.5 -3 q12 -2 23 -2 l-4 -44 q-11 -1 -24 -2 q-11 -1 -26.5 -1 q-15.5 0 -33.5 0 q-4 -29 -8 -53 q-4 -24 -7 -41 l81 1 q20 26 38 56 q18 30 33 65 l49 -21 q-8 -26 -17.5 -51 q-9.5 -25 -20.5 -48 l117 1 l1 -45 Z" /><glyph glyph-name="" unicode="&#x8bc1;" d="M387 134 q20 -2 41.5 -2 q21.5 0 44.5 -1 q-2 24 -3.5 57 q-1.5 33 -3 67 q-1.5 34 -2 65.5 q-0.5 31.5 1.5 51.5 l90 0 q0 -46 -1 -90 q-1 -38 -2.5 -79.5 q-1.5 -41.5 -4.5 -71.5 l79 2 l15 385 q-37 -3 -69.5 -4 q-32.5 -1 -57.5 0 q-29 0 -54 2 l-8 82 q64 -2 135.5 2 q71.5 4 131.5 9 q70 5 139 13 l5 -55 q-32 -15 -70.5 -25 q-38.5 -10 -79.5 -16 q2 -26 3.5 -64 q1.5 -38 3.5 -84 q27 -2 53.5 -3 q26.5 -1 47.5 -1 l46 0 l0 -52 q-20 -8 -43 -12 q-20 -5 -46.5 -7 q-26.5 -2 -56.5 2 q1 -48 0.5 -91.5 q-0.5 -43.5 -2.5 -76.5 q41 2 76.5 4.5 q35.5 2.5 61.5 4.5 q31 2 56 4 l3 -86 q-102 -13 -196.5 -12.5 q-94.5 0.5 -169.5 6.5 q-87 6 -164 19 l0 57 ZM97 336 l-6 59 q33 3 67 6 q29 2 63.5 3.5 q34.5 1.5 66.5 -0.5 q-1 -52 -3 -99 q-2 -40 -4.5 -80.5 q-2.5 -40.5 -6.5 -61.5 l74 21 l23 -54 q-24 -20 -52 -35 q-24 -13 -55.5 -23.5 q-31.5 -10.5 -66.5 -8.5 q-3 26 -5 63.5 q-2 37.5 -2.5 75.5 q-0.5 38 0 73 q0.5 35 2.5 57 l-95 4 ZM224 460 q-15 20 -31 38 q-14 16 -30 33.5 q-16 17.5 -31 31.5 l43 51 q24 -14 45 -28 q18 -13 36.5 -28 q18.5 -15 29.5 -32 l-62 -66 Z" /><glyph glyph-name="" unicode="&#x8bd1;" d="M535 623 q16 -16 35 -30.5 q19 -14.5 39 -28.5 q32 20 60 42 q28 22 49 47 q-34 5 -74 9 q-34 4 -79 8.5 q-45 4.5 -96 7.5 l10 73 q58 -6 116 -13 q50 -6 105.5 -14 q55.5 -8 102.5 -18 l-3 -57 q-11 -32 -38.5 -67.5 q-27.5 -35.5 -66.5 -67.5 q33 -18 63.5 -32 q30.5 -14 54.5 -24 q27 -11 52 -20 l-34 -78 q-66 17 -118 44 q-52 27 -92 57 q-36 -21 -76 -37 q-40 -16 -84 -26 l-39 77 q17 6 36 14 q17 7 39 16.5 q22 9.5 48 22.5 q-27 29 -42 50 q-8 11 -14 20 l46 25 ZM464 338 q29 -5 60 -9.5 q31 -4.5 62 -7.5 l0 49 q0 11 1 19 l74 3 q2 -11 4.5 -31.5 q2.5 -20.5 4.5 -46.5 q25 -2 46 -3 q21 -1 36 -2 q18 -1 32 -1 l-5 -53 q-22 -6 -48.5 -8.5 q-26.5 -2.5 -55.5 -3.5 q1 -20 1.5 -40 q0.5 -20 2.5 -40 q32 1 57.5 1.5 q25.5 0.5 45.5 1.5 q22 1 41 2 l5 -66 q-15 -3 -37 -7 q-19 -3 -46.5 -5.5 q-27.5 -2.5 -62.5 -2.5 q2 -45 3 -71 q1 -16 1 -28 l-99 -3 q-1 13 -1.5 41 q-0.5 28 -0.5 64 q-37 3 -76.5 8 q-39.5 5 -87.5 13 l5 49 q39 -1 79.5 -0.5 q40.5 0.5 79.5 1.5 l0 85 q-27 2 -51 4.5 q-24 2.5 -42 4.5 q-21 3 -38 6 l10 77 ZM112 336 l-7 59 q33 3 67 6 q29 2 64 3.5 q35 1.5 67 -0.5 q-2 -52 -4 -99 q-2 -40 -4.5 -80.5 q-2.5 -40.5 -6.5 -61.5 l74 21 l23 -54 q-24 -20 -52 -35 q-24 -13 -55.5 -23.5 q-31.5 -10.5 -66.5 -8.5 q-3 26 -5 63.5 q-2 37.5 -2.5 75.5 q-0.5 38 0 73 q0.5 35 2.5 57 l-94 4 ZM238 460 q-15 20 -31 38 q-14 16 -30 33.5 q-16 17.5 -31 31.5 l43 51 q24 -14 45 -28 q18 -13 37 -28 q19 -15 30 -32 l-63 -66 Z" /><glyph glyph-name="" unicode="&#x8bfb;" d="M685 768 q0 -26 0 -49 q0 -23 -1 -45 q26 -2 47.5 -3 q21.5 -1 37.5 -2 q18 -1 34 -2 l-1 -53 q-15 -1 -33 -3 q-16 -2 -38 -3 q-22 -1 -49 0 q0 -19 0 -38.5 q0 -19.5 1 -41.5 q63 -6 120 -14 q57 -8 90 -17 q-7 -34 -14 -64 q-6 -26 -14.5 -51.5 q-8.5 -25.5 -16.5 -37.5 l-85 18 q5 16 9 32 q4 14 8.5 28.5 q4.5 14.5 9.5 27.5 q-91 4 -170 8 q-34 2 -68 4 q-34 2 -64.5 5 q-30.5 3 -55 6 q-24.5 3 -38.5 6 l12 69 q27 -1 59 -3 q27 -2 62.5 -4.5 q35.5 -2.5 75.5 -5.5 q-3 19 -4.5 38 q-1.5 19 -3.5 38 q-26 2 -54 5.5 q-28 3.5 -57 8.5 l-1 71 q27 -4 55 -7.5 q28 -3.5 56 -6.5 q0 18 0.5 34 q0.5 16 1.5 27 q1 13 2 25 l87 0 ZM645 374 l64 -11 q-4 -38 -12 -76 q-8 -38 -19 -76 q45 2 86 4.5 q41 2.5 71 5.5 l1 -71 q-48 -8 -94.5 -12 q-46.5 -4 -91.5 -5 q-29 -66 -70 -114.5 q-41 -48.5 -93 -67.5 l-62 63 q33 27 61 57.5 q28 30.5 52 64.5 q-35 2 -63 5 q-28 3 -48 5 q-24 3 -43 6 l-1 48 q27 1 59 2 q27 1 63 2 q36 1 76 3 q20 38 35.5 80 q15.5 42 28.5 87 ZM95 353 l-6 59 q33 3 67 6 q29 2 63.5 3.5 q34.5 1.5 66.5 -0.5 q-1 -52 -3 -99 q-2 -40 -4.5 -80.5 q-2.5 -40.5 -6.5 -61.5 l73 21 l24 -53 q-24 -21 -52 -36 q-24 -14 -55.5 -24 q-31.5 -10 -66.5 -8 q-3 26 -5 63.5 q-2 37.5 -2.5 76 q-0.5 38.5 0 73.5 q0.5 35 2.5 57 l-95 3 ZM707 112 q41 -23 72.5 -37 q31.5 -14 61.5 -25 l-46 -85 q-24 11 -45 25 q-21 14 -37 28 q-16 14 -27 26 q-11 12 -16 19 l37 49 ZM221 478 q-14 19 -30 37 q-14 16 -30 33.5 q-16 17.5 -31 31.5 l43 51 q24 -14 45 -28 q18 -13 36.5 -28 q18.5 -15 29.5 -32 l-63 -65 ZM518 328 q-18 11 -33 24 q-13 11 -24 26 q-11 15 -14 33 l40 40 q2 -2 9.5 -9 q7.5 -7 19.5 -17 q12 -10 26.5 -21 q14.5 -11 30.5 -19 l-55 -57 ZM530 287 l-29 -66 q-32 7 -52 16.5 q-20 9.5 -31 17.5 q-13 10 -20 20 l23 46 l109 -34 Z" /><glyph glyph-name="" unicode="&#x9605;" d="M543 627 l-3 54 q51 1 103 1 q44 0 94.5 -1.5 q50.5 -1.5 93.5 -6.5 q23 -161 38 -301 q6 -60 11.5 -121 q5.5 -61 8.5 -115.5 q3 -54.5 2 -98.5 q-1 -44 -7 -69 q-29 -9 -58 -13 q-25 -4 -53.5 -5.5 q-28.5 -1.5 -53.5 5.5 l-11 59 l84 11 q-6 141 -13 260 q-3 51 -6.5 101 q-3.5 50 -6.5 93.5 q-3 43.5 -6 75.5 q-3 32 -6 47 l-211 24 ZM368 260 q4 44 8 82 q3 32 5.5 62 q2.5 30 1.5 39 l71 4 q1 -2 1 -5 q0 -6 1 -10 q16 2 42.5 3.5 q26.5 1.5 54 2.5 q27.5 1 51.5 0.5 q24 -0.5 37 -1.5 q5 -43 9 -80 q3 -32 4.5 -63 q1.5 -31 -2.5 -44 q-22 -1 -48 -3 q-22 -2 -49.5 -3 q-27.5 -1 -56.5 0 q-7 -76 -42.5 -118.5 q-35.5 -42.5 -83.5 -56.5 l-49 61 q29 20 61.5 49 q32.5 29 51.5 68 q-20 2 -37.5 5 q-17.5 3 -30.5 8 ZM201 565 l56 -6 q11 -84 14 -172 q1 -38 0.5 -79.5 q-0.5 -41.5 -3.5 -85 q-3 -43.5 -10 -87.5 q-7 -44 -18 -85 l-91 11 l52 504 ZM601 224 q2 -29 1.5 -48.5 q-0.5 -19.5 -2.5 -31.5 q-2 -14 -4 -22 l57 1 q-1 6 -2 11 q-1 5 -1.5 10.5 q-0.5 5.5 0.5 11.5 l72 3 l6 -82 q-29 -11 -62 -14.5 q-33 -3.5 -62 -4.5 q-33 -1 -67 2 q-7 23 -11 49 q-4 23 -5 52.5 q-1 29.5 4 62.5 l76 0 ZM381 605 q-21 7 -41 19 q-17 11 -36 29 q-19 18 -32 47 l58 58 q16 -17 34 -35 q16 -15 36 -32 q20 -17 43 -32 l-62 -54 ZM542 497 q11 13 22.5 30 q11.5 17 21.5 32 q11 18 22 36 l57 -30 q-2 -31 -14.5 -51.5 q-12.5 -20.5 -26.5 -32.5 q-17 -15 -37 -23 l-45 39 ZM525 383 q-17 0 -34.5 0.5 q-17.5 0.5 -30.5 0.5 q3 -39 0 -83 q20 -1 39 -2 q17 -1 34.5 -1.5 q17.5 -0.5 31.5 -2.5 q1 10 2 23 q2 23 -3 65 l-39 0 ZM424 587 q13 -16 25 -31 q11 -13 22.5 -27 q11.5 -14 21.5 -22 l-35 -35 q-18 4 -35 14 q-14 8 -28 23 q-14 15 -21 40 l50 38 Z" /><glyph glyph-name="" unicode="&#xff1a;" d="M197 246 q-25 0 -39.5 20.5 q-14.5 20.5 -15.5 45.5 q0 19 12.5 37 q12.5 18 50.5 18 q26 0 42.5 -16.5 q16.5 -16.5 15.5 -47.5 q-1 -25 -20.5 -41 q-19.5 -16 -45.5 -16 ZM195 35 q-27 0 -40.5 21 q-13.5 21 -14.5 45 q0 9 2.5 19 q2.5 10 10 18.5 q7.5 8.5 19.5 14 q12 5.5 32 5.5 q27 -1 43.5 -18 q16.5 -17 15.5 -48 q-1 -27 -20.5 -42 q-19.5 -15 -47.5 -15 Z" /></font>
</defs>
</svg>
